<svg width="17" height="17" viewBox="0 0 17 17" fill="none" xmlns="http://www.w3.org/2000/svg">
<path d="M8.5 0L15.8612 4.25V12.75L8.5 17L1.13878 12.75V4.25L8.5 0Z" fill="#27C10B"/>
<path d="M12.4588 7.32812H10.5923C10.5582 7.08665 10.4886 6.87216 10.3835 6.68466C10.2784 6.49432 10.1435 6.33239 9.97869 6.19886C9.81392 6.06534 9.62358 5.96307 9.40767 5.89205C9.1946 5.82102 8.96307 5.78551 8.71307 5.78551C8.26136 5.78551 7.8679 5.89773 7.53267 6.12216C7.19744 6.34375 6.9375 6.66761 6.75284 7.09375C6.56818 7.51705 6.47585 8.03125 6.47585 8.63636C6.47585 9.25852 6.56818 9.78125 6.75284 10.2045C6.94034 10.6278 7.2017 10.9474 7.53693 11.1634C7.87216 11.3793 8.25994 11.4872 8.70028 11.4872C8.94744 11.4872 9.17614 11.4545 9.38636 11.3892C9.59943 11.3239 9.78835 11.2287 9.95312 11.1037C10.1179 10.9759 10.2543 10.821 10.3622 10.6392C10.473 10.4574 10.5497 10.25 10.5923 10.017L12.4588 10.0256C12.4105 10.4261 12.2898 10.8125 12.0966 11.1847C11.9063 11.554 11.6491 11.8849 11.3253 12.1776C11.0043 12.4673 10.6207 12.6974 10.1747 12.8679C9.73153 13.0355 9.23011 13.1193 8.67045 13.1193C7.89205 13.1193 7.19602 12.9432 6.58239 12.5909C5.97159 12.2386 5.48864 11.7287 5.13352 11.0611C4.78125 10.3935 4.60511 9.58523 4.60511 8.63636C4.60511 7.68466 4.78409 6.875 5.14205 6.20739C5.5 5.53977 5.9858 5.03125 6.59943 4.68182C7.21307 4.32955 7.90341 4.15341 8.67045 4.15341C9.17614 4.15341 9.64489 4.22443 10.0767 4.36648C10.5114 4.50852 10.8963 4.71591 11.2315 4.98864C11.5668 5.25852 11.8395 5.58949 12.0497 5.98153C12.2628 6.37358 12.3991 6.82244 12.4588 7.32812Z" fill="black"/>
</svg>
