<svg width="19" height="20" viewBox="0 0 19 20" fill="none" xmlns="http://www.w3.org/2000/svg">
<path opacity="0.75" d="M0 5.83453C0 5.10185 0.40063 4.42782 1.04423 4.07768L8.09265 0.243155C8.68397 -0.0785384 9.39745 -0.0811828 9.99114 0.236118L17.0227 3.9942C17.6736 4.34206 18.08 5.02009 18.08 5.75808V13.9265C18.08 14.6459 17.6936 15.3098 17.0682 15.6653L10.0317 19.6642C9.41703 20.0135 8.66362 20.0124 8.05003 19.6612L1.00652 15.6299C0.384048 15.2736 0 14.6113 0 13.894V5.83453Z" fill="#27C10B"/>
<path d="M12.4988 8.30591H10.6324C10.5983 8.06443 10.5287 7.84994 10.4236 7.66244C10.3184 7.4721 10.1835 7.31017 10.0187 7.17665C9.85396 7.04312 9.66362 6.94085 9.44771 6.86983C9.23464 6.79881 9.00311 6.76329 8.75311 6.76329C8.3014 6.76329 7.90794 6.87551 7.57271 7.09994C7.23748 7.32153 6.97754 7.6454 6.79288 8.07153C6.60822 8.49483 6.51589 9.00903 6.51589 9.61415C6.51589 10.2363 6.60822 10.759 6.79288 11.1823C6.98038 11.6056 7.24174 11.9252 7.57697 12.1411C7.9122 12.357 8.29998 12.465 8.74032 12.465C8.98748 12.465 9.21618 12.4323 9.4264 12.367C9.63947 12.3016 9.82839 12.2065 9.99316 12.0815C10.1579 11.9536 10.2943 11.7988 10.4023 11.617C10.5131 11.4352 10.5898 11.2278 10.6324 10.9948L12.4988 11.0034C12.4506 11.4039 12.3298 11.7903 12.1366 12.1624C11.9463 12.5318 11.6892 12.8627 11.3653 13.1553C11.0443 13.4451 10.6608 13.6752 10.2148 13.8457C9.77157 14.0133 9.27015 14.0971 8.71049 14.0971C7.93208 14.0971 7.23606 13.921 6.62243 13.5687C6.01163 13.2164 5.52868 12.7065 5.17356 12.0389C4.82129 11.3712 4.64515 10.563 4.64515 9.61415C4.64515 8.66244 4.82413 7.85278 5.18208 7.18517C5.54004 6.51756 6.02583 6.00903 6.63947 5.6596C7.25311 5.30733 7.94345 5.13119 8.71049 5.13119C9.21618 5.13119 9.68493 5.20221 10.1167 5.34426C10.5514 5.48631 10.9363 5.69369 11.2716 5.96642C11.6068 6.23631 11.8795 6.56727 12.0898 6.95932C12.3028 7.35136 12.4392 7.80023 12.4988 8.30591Z" fill="black"/>
</svg>
