<?xml version="1.0" encoding="utf-8" ?>
<svg xmlns="http://www.w3.org/2000/svg" xmlns:xlink="http://www.w3.org/1999/xlink" width="24" height="24" viewBox="0 0 24 24">
	<defs>
		<clipPath id="clipPath3765039787">
			<path transform="matrix(1 0 0 1 0 0)" d="M0 0L24 0L24 24L0 24L0 0Z" fill-rule="nonzero"/>
		</clipPath>
	</defs>
	<g clip-path="url(#clipPath3765039787)">
		<defs>
			<clipPath id="clipPath0354301358">
				<path transform="matrix(1 0 0 1 0 0)" d="M0 0L24 0L24 24L0 24L0 0Z" fill-rule="nonzero"/>
			</clipPath>
		</defs>
		<g clip-path="url(#clipPath0354301358)">
			<path transform="matrix(1 0 0 1 1.5 1.5)" d="M0 0L0 21L21 21L21 0L0 0ZM17.4469 4.97344L16.3219 6.05156C16.2234 6.12656 16.1766 6.24844 16.1953 6.36563L16.1953 14.3016C16.1766 14.4234 16.2234 14.5453 16.3219 14.6156L17.4234 15.6938L17.4234 15.9328L11.8922 15.9328L11.8922 15.7031L13.0312 14.5969C13.1437 14.4844 13.1437 14.4516 13.1437 14.2828L13.1437 7.86563L9.975 15.9094L9.54844 15.9094L5.85938 7.86563L5.85938 13.2562C5.82656 13.4812 5.90625 13.7109 6.06562 13.875L7.54688 15.6703L7.54688 15.9094L3.3375 15.9094L3.3375 15.6703L4.81875 13.875C4.97813 13.7109 5.04844 13.4813 5.01094 13.2562L5.01094 7.02187C5.02969 6.84844 4.96406 6.67969 4.83281 6.5625L3.51562 4.97344L3.51562 4.73438L7.60781 4.73438L10.7672 11.6719L13.5469 4.73906L17.4469 4.73906L17.4469 4.97344Z" fill-rule="nonzero" fill="rgb(224, 224, 224)"/>
		</g>
	</g>
</svg>
