<svg width="18" height="21" viewBox="0 0 18 21" fill="none" xmlns="http://www.w3.org/2000/svg">
<path d="M15.8039 1H1.99988C1.86069 1.00002 1.72303 1.02909 1.59571 1.08537C1.4684 1.14164 1.35424 1.22388 1.26053 1.32681C1.16683 1.42974 1.09564 1.55109 1.05154 1.68312C1.00743 1.81514 0.991366 1.95491 1.00438 2.0935L2.34838 16.4265C2.36466 16.6009 2.42648 16.768 2.52766 16.9111C2.62883 17.0541 2.76581 17.1681 2.92488 17.2415L8.48288 19.8065C8.61425 19.8671 8.7572 19.8985 8.90188 19.8985C9.04656 19.8985 9.18951 19.8671 9.32088 19.8065L14.8789 17.2415C15.038 17.1681 15.1751 17.0542 15.2764 16.9112C15.3777 16.7681 15.4396 16.601 15.4559 16.4265L16.7994 2.0935C16.8124 1.95491 16.7963 1.81514 16.7522 1.68312C16.7081 1.55109 16.6369 1.42974 16.5432 1.32681C16.4495 1.22388 16.3354 1.14164 16.208 1.08537C16.0807 1.02909 15.9431 1.00002 15.8039 1Z" fill="#27C10B" stroke="#27C10B" stroke-width="2"/>
<path d="M12.9019 4.5H4.90186L5.40186 9H12.4019L11.9019 14.5L8.90186 16L5.90186 14.5L5.65186 12" fill="#27C10B"/>
<path d="M12.9019 4.5H4.90186L5.40186 9H12.4019L11.9019 14.5L8.90186 16L5.90186 14.5L5.65186 12" stroke="black" stroke-width="2" stroke-linecap="round" stroke-linejoin="round"/>
</svg>
