<svg width="16" height="16" viewBox="0 0 16 16" fill="none" xmlns="http://www.w3.org/2000/svg">
<g clip-path="url(#clip0_100_12)">
<path d="M12.25 0H3.75C1.67893 0 0 1.67893 0 3.75V12.25C0 14.3211 1.67893 16 3.75 16H12.25C14.3211 16 16 14.3211 16 12.25V3.75C16 1.67893 14.3211 0 12.25 0Z" fill="#27C10B"/>
<path d="M6.35213 11.4137C6.35213 11.4137 5.87213 11.7058 6.68619 11.7894C7.66919 11.9146 8.18895 11.8937 9.27413 11.6851C9.27413 11.6851 9.56626 11.8732 9.96288 12.0191C7.5207 13.0626 4.43182 11.9565 6.35213 11.4137ZM6.03907 10.0571C6.03907 10.0571 5.5172 10.4537 6.3312 10.537C7.39545 10.6414 8.23063 10.6623 9.67076 10.3704C9.67076 10.3704 9.85882 10.5792 10.1717 10.6835C7.22901 11.56 3.93107 10.7668 6.03907 10.0573V10.0571ZM11.7997 12.4365C11.7997 12.4365 12.1544 12.7286 11.4031 12.9584C10.0046 13.3757 5.53813 13.5012 4.28582 12.9584C3.84776 12.7703 4.68251 12.4989 4.9537 12.4574C5.22507 12.3948 5.37107 12.3948 5.37107 12.3948C4.89107 12.0608 2.17763 13.0835 3.99351 13.3779C8.98182 14.192 13.0937 13.0231 11.7995 12.4386L11.7997 12.4365ZM6.5817 8.63767C6.5817 8.63767 4.30657 9.18048 5.76745 9.36811C6.39363 9.45142 7.62501 9.43073 8.77301 9.34717C9.71226 9.2638 10.6536 9.09673 10.6536 9.09673C10.6536 9.09673 10.3196 9.24286 10.0901 9.38886C7.77138 9.99467 3.3257 9.7233 4.59895 9.09711C5.68457 8.57523 6.5817 8.63767 6.5817 8.63767ZM10.6514 10.9127C12.9894 9.70211 11.9038 8.53336 11.1524 8.67955C10.9643 8.72123 10.881 8.76292 10.881 8.76292C10.881 8.76292 10.9436 8.63767 11.0898 8.59623C12.5716 8.07436 13.7406 10.1616 10.6098 10.9756C10.6098 10.9756 10.6308 10.9547 10.6514 10.913V10.9127ZM6.81119 14.2102C9.06538 14.3564 12.5092 14.1269 12.5928 13.0622C12.5928 13.0622 12.4261 13.4795 10.7353 13.7927C8.81513 14.1474 6.43551 14.1057 5.03726 13.876C5.03726 13.876 5.32938 14.1264 6.81138 14.21L6.81119 14.2102Z" fill="black"/>
<path d="M9.23029 1.75C9.23029 1.75 10.5243 3.06494 7.99892 5.0475C5.97429 6.6545 7.53948 7.573 7.99892 8.61631C6.80923 7.55206 5.95379 6.61263 6.53785 5.736C7.39567 4.44269 9.75385 3.8165 9.23029 1.75ZM8.56248 7.74013C9.16767 8.42888 8.39579 9.05506 8.39579 9.05506C8.39579 9.05506 9.94023 8.26219 9.23073 7.28088C8.5836 6.34163 8.08273 5.88238 10.7961 4.31681C10.7961 4.31681 6.51692 5.3815 8.56248 7.74013Z" fill="black"/>
</g>
<defs>
<clipPath id="clip0_100_12">
<rect width="16" height="16" fill="white"/>
</clipPath>
</defs>
</svg>
